<svg width="24" height="24" viewBox="0 0 24 24" fill="none" xmlns="http://www.w3.org/2000/svg"><path d="M2.6887 2.6887c.9182-.9183 2.4072-.9183 3.3254 0L12 8.6746l5.9859-5.986c.9182-.9182 2.4072-.9182 3.3254 0 .9183.9183.9183 2.4073 0 3.3255L15.3255 12l5.9858 5.9859c.9183.9182.9183 2.4072 0 3.3254-.9182.9183-2.4072.9183-3.3254 0L12 15.3251 6.0141 21.311c-.9182.9182-2.4072.9182-3.3254 0-.9183-.9183-.9183-2.4072 0-3.3255l5.9859-5.9858-5.986-5.9859c-.9182-.9182-.9182-2.4072 0-3.3255v.0004Z" fill="currentColor"/></svg>
