<svg width="24" height="24" viewBox="0 0 24 24" fill="none" xmlns="http://www.w3.org/2000/svg"><path d="M16.6 9.1a3 3 0 0 1 0 .3l-.3 1.2v-.2c-.1.4-.3.7-.6 1l.2-.1-1 1 .2-.2a8 8 0 0 1-1.8 1l.2-.1-3 1-.6.2A3.6 3.6 0 0 0 8 16c-.1.2-.3.5-.3.8v.6c.2.2.4.4.6.4H9c.2-.2.4-.4.4-.6 0-.2 0-.3.2-.5l-.1.2c0-.3.2-.5.4-.7l-.2.2.5-.5-.1.1.6-.4-.2.1 1.7-.5c.8-.2 1.7-.5 2.4-.9.9-.4 1.7-1 2.3-1.7a5.6 5.6 0 0 0 1.3-3.2v-.3c0-.2 0-.4-.2-.6a.8.8 0 0 0-.6-.2c-.2 0-.4 0-.6.2l-.2.6Z" fill="currentColor"/><path d="M9.4 18.5V5.8c0-.5-.4-1-.8-.9-.5 0-.8.4-.8.8V18.5c0 .4.3.8.8.8.4 0 .8-.3.8-.8ZM18 7.7v.2-.3.4-.2c0 .1 0 .2-.2.3a176 176 0 0 0 0 .1v-.1l-.2.2.2-.1h-.4.2-.4.2-.3.2l-.4-.1a215.9 215.9 0 0 1 0-.1V8l-.1-.3V8v-.4.3-.4.2-.4.2l.2-.3-.1.1.2-.2a215.9 215.9 0 0 1 .2 0H17h.3-.2.4-.2.4-.2l.3.1-.2-.1.3.2a176 176 0 0 0 0 .2v-.2.4c0 .2.1.4.3.5.1.2.4.3.6.3.4 0 .8-.4.8-.8a2.2 2.2 0 0 0-1-1.9 2.3 2.3 0 0 0-1.9-.3 2.2 2.2 0 0 0-1.5 1.4l-.2.6c0 .5.1 1 .4 1.3a2.2 2.2 0 0 0 1.7 1.1h.7c.5-.1 1-.4 1.2-.7.4-.5.6-1 .6-1.5s-.4-.9-.8-.9c-.5 0-.9.4-.9.9Z" fill="currentColor"/><path d="M9.2 4.3v.2-.2.3-.2l-.2.4a1066.2 1066.2 0 0 0-.3.1H9h-.3.2-.4.2-.4.2l-.3-.2.2.1-.3-.2.2.2-.2-.4v.2-.3.2V4v.2-.4.2s0-.2.2-.3l.2-.1h-.2.4-.2.4-.2.3-.2a1066.2 1066.2 0 0 1 .5.5v-.3.4l.3.6.5.2c.5 0 .9-.4.9-.8a2.2 2.2 0 0 0-1-1.9 2.3 2.3 0 0 0-2-.3 2.2 2.2 0 0 0-1.4 1.4l-.2.7c0 .4.1.9.3 1.2a2.2 2.2 0 0 0 1.8 1.1h.7c.4 0 .9-.4 1.2-.7.4-.4.6-1 .6-1.5s-.4-.9-.9-.8c-.4 0-.8.3-.8.8ZM9.2 20v.2-.3.4-.2l-.2.3.2-.1-.3.2a176 176 0 0 0-.1 0h.1l-.3.1h.2-.4.2l-.4-.1h.2l-.3-.1a176 176 0 0 0 0-.1v.1l-.1-.3v.2-.4.3-.4.2-.4.2l.2-.3-.2.1.3-.2a205.6 205.6 0 0 1 .1 0h-.2.4-.2.4-.2.3-.1l.3.1-.2-.1.3.2-.2-.1.2.3v-.2.4c0 .2.1.4.3.5.1.2.3.3.5.3.5 0 .9-.4.9-.8a2.2 2.2 0 0 0-1-1.9 2.3 2.3 0 0 0-2-.3 2.2 2.2 0 0 0-1.4 1.4l-.2.6c0 .5.1 1 .3 1.3a2.2 2.2 0 0 0 1.8 1.1h.7c.4-.1.9-.4 1.2-.7.4-.5.6-1 .6-1.5s-.4-.9-.9-.9c-.4 0-.8.4-.8.9Z" fill="currentColor"/></svg>
